<svg id="Layer_1" data-name="Layer 1" xmlns="http://www.w3.org/2000/svg" viewBox="0 0 850.39 310.62"><rect x="585.5" y="16.76" width="264.83" height="19.59" rx="9.54"/><path d="M238.46,544.88A22.43,22.43,0,1,0,216,522.45,22.42,22.42,0,0,0,238.46,544.88Z" transform="translate(-74.8 -344.69)"/><path d="M206.67,559.6a9,9,0,1,0-9-9A9,9,0,0,0,206.67,559.6Z" transform="translate(-74.8 -344.69)"/><path d="M174.88,544.88a22.43,22.43,0,1,0-22.42-22.43A22.42,22.42,0,0,0,174.88,544.88Z" transform="translate(-74.8 -344.69)"/><path d="M519.66,357.48c0,15.68-8,22.25-27.4,22.67l-1.38,0v12.48l1.38,0,1.73,0c13.22,0,23.2-3.26,29.7-9.71,4.82-4.78,7.65-11.28,8.52-19.3v19.06A10.8,10.8,0,0,0,542.49,393h30.33V380.91h-26.3a1.67,1.67,0,0,1-.39,0s-.28-.33-.22-2.16v-12h25.36v7h42.46v-14.2H573.66v-6.35h-.49a2.83,2.83,0,0,0,0-.29,8.1,8.1,0,1,0-16.2,0c0,.1,0,.19,0,.29H545.91v-6.83h-13.7v5H519.59l.07,1.48C519.73,354.44,519.7,355.93,519.66,357.48Zm45.43-8.82a4.18,4.18,0,0,1,4.12,4.23,4.32,4.32,0,0,1-.63,2.22c-.09.14-.43.59-.51.68a4.09,4.09,0,0,1-6,0,7.5,7.5,0,0,1-.52-.7,4.23,4.23,0,0,1,3.5-6.43Z" transform="translate(-74.8 -344.69)"/><path d="M461.08,359.22h15.06c-.18,7.21-1.94,12.41-5.38,15.86-4.74,4.75-12.07,5.4-19.29,5.4h-1.42v12.88h2.41c5.57,0,18.81-.27,27.76-9.25,5.87-5.89,8.87-14.5,8.95-25.56h26V346H448.21v22.58h12.87Z" transform="translate(-74.8 -344.69)"/><path d="M628.54,372.72c-4.26,4.64-9.7,7.76-12.12,7.76-1,0-1.53,0-2,0s-.9,0-1.83,0l-1.37,0v12.4l1.31.09a29.32,29.32,0,0,0,25.64-10.78c4.13,7.39,9.25,9.45,13.81,11.27l1.94.78V381.12l-.8-.39c-3.06-1.46-5.95-4.51-8.37-8.83a26.47,26.47,0,0,0,2.67-11.9V349.12H614.21v12.3h19.91C634,365,632,368.94,628.54,372.72Z" transform="translate(-74.8 -344.69)"/><path d="M635.51,417.68l17.87-5.15-18.89-3.86a16.43,16.43,0,0,0-31-.21l-17.81,4.76,16.64,4.07a17.48,17.48,0,0,0,10.09,14.07v4.52A35.88,35.88,0,0,0,583.11,471,35.49,35.49,0,0,0,596,498.34L588.82,508l6.17.59L589.06,518h11.41L593,544.1l10.69-.06,2.33,39.36c-19.51-.45-34.21,28.19,13,3.05,19,19.07,36.28,10.59,11.85-2.36l2.49-40.17,9.34-.06L637.4,518h10l-5.93-9.48,5.93-.57-6.32-8.44a35.57,35.57,0,0,0-14.93-63.6V431A17.54,17.54,0,0,0,635.51,417.68Zm-29.45,72.58a19.78,19.78,0,0,1,0-29.57Zm25.53-30.35a19.79,19.79,0,0,1,0,31.13Z" transform="translate(-74.8 -344.69)"/><path d="M915.66,606.33H885L922.39,596l-26.12-25.18-1.22,10.86c-1.91-.93-3.74-1.93-5.52-3a115.65,115.65,0,0,0,7.27-22.32,8.29,8.29,0,0,0,1.65-.85,7.31,7.31,0,0,0,3.14-6c1,.93,11.71-2,12.78-2.61s3.62-1.48,5.26-4.08c.68-1.08,3.41-6.56,2.47-7.42-11.81-10.84-14-13.19-18.83-19.64a16.39,16.39,0,0,0,7.1-4.86c3.47-4,5.31-9.91,5.31-17,0-7.7-2.07-14-6-18.22A16.77,16.77,0,0,0,892.1,471a20,20,0,0,0-13.35,14.32h-2.91v-8.86a7.24,7.24,0,0,0-2.1-5.39,6.71,6.71,0,0,0-4.74-1.89,7.16,7.16,0,0,0-7.18,7.28V485H843.44c4.59-31.26,21.6-54.71,53.19-73.27v11.84l24.42-27-39.47-10.64,9.07,10.55c-22.58,6.21-41.56,18.81-55.09,36.61a103.29,103.29,0,0,0-17.93,37.82V433.53A33.91,33.91,0,0,0,807.39,409c-7.75-7.57-19.08-11.88-31.19-11.88h-.75c-11,.16-21.22,3.94-28.69,10.63a39.07,39.07,0,0,0-12.19,22.06V396.69h-92l6.54,5.08c8.36,6.48,8.36,46.3,8.36,92.39,0,6.17,0,12.31.08,18.33.28,39.24.55,76.29-12.36,80.75l.92,5.52h19.28c-2.59,1.41-5.05,2.92-7.34,4.31-1.64,1-3.19,1.95-4.64,2.78l.16.48H590c-10.3-10.05-21.47-15.48-33.31-16.12a46.18,46.18,0,0,0-13.86,1.43c-4.51-6.33-6-29.93-5.38-47.58,19-.75,44.88-9.34,44.88-31.22,0-12.41.09-23.37.2-35,.1-12.14.21-24.69.21-39.55,0-25.28-14-41.62-35.66-41.62H504.69l-1.15,5.43a.6.6,0,0,1-.18-.11c.65.57,2.34,4.26,3.12,11.56,1.84,17.31,2,46.95,2,83.91,0,36.79-2.48,68.69-4.6,84.84-.85,6.45-3.08,8.71-5.43,11.1l-5.19,5.34h33.32a64.77,64.77,0,0,0-9.61,7.29l-.3.28H445.55c-.15-.12-.29-.23-.43-.36a64.12,64.12,0,0,0-10.29-7.21h47.61V551.69l-5.12,7c-7.24,9.85-19.85,11.19-29.13,8.14-9.53-3.12-15.22-10.28-15.22-19.15,0-19.94.16-39.86.21-46.46,16.49-2.86,25,10.73,27.33,15.12l5.35-1.35-.48-42.11L460,471.58c-6.39,12.33-20,15.82-27.28,16.36.08-9.19.31-37.26.46-43.88.32-14.8,11.61-20.71,21.18-21.27,10.16-.59,21.3,4.67,22.89,15.92l5.64-.4V396.69H358.07l.41,3.2c1.91,14.89,1.27,23.26.12,30.72-1.9-7.53-3.23-16.18-3.48-31.13l-.05-2.79h-14a16.23,16.23,0,0,0-.84-8.3,14.35,14.35,0,0,0-6.73-7.59h99.3a9.56,9.56,0,0,0,0-19.11H117.91a9.52,9.52,0,0,0-7.93,4.25,17.52,17.52,0,0,0-5.13-.51,14.26,14.26,0,0,0-10.47,5.09,15.51,15.51,0,0,0-3.25,10.42c-7,.65-12.13,4.13-14.33,9.82A16.6,16.6,0,0,0,81.42,409c5.06,4.36,12,4.8,19.32,1.31l21.57,22.15a108.72,108.72,0,0,0-23.28,57,85.18,85.18,0,0,0-7.71,4.14l-6.13,3.74,7,1.46c2.34.48,4.37.91,6.24,1.31v.33a108.68,108.68,0,0,0,22.44,66.22L99.81,588.38c-7.3-3.49-14.26-3-19.33,1.32A16.62,16.62,0,0,0,75.86,608c2.19,5.69,7.33,9.17,14.32,9.81-.09,6.56,2.83,11.74,8.14,14.15a15.69,15.69,0,0,0,6.51,1.37,17.3,17.3,0,0,0,2.87-.26l-1.14,2.85,10.26.77v8l6.43-1.51L126,654.49l3.54-4.56,1.84,2.75,5.18-1.81-1.23-14.51c4.22-4.7,8.3-9,12.29-13H260.66C273,632,284.38,637.09,295.12,639a55.63,55.63,0,0,0,9.75.88c15.53,0,28.28-6.87,41.82-15.13l2.25-1.37H437.8c17,11,30.66,15,42.17,15,15.86,0,27.57-7.46,37.9-14.05l1.47-.93H578.6c14.59,11.61,26.95,15.89,38.12,15.89,14.93,0,27.74-7.61,40.94-15.46l.73-.43h64.68l3.06,2.42c15.71,12.47,37.18,29.51,64.59,29.51h.89c21.69-.29,49.1-13,69.57-31.92h54.48c5.26,0,9.54-3.82,9.54-8.52S920.92,606.33,915.66,606.33ZM537.59,423.26c5.34.69,16.34,3.26,16.34,12.66v62.91c0,6.41-1.5,11.13-4.45,14-3.44,3.39-8.39,3.87-11.89,3.9Zm-416-42.46h174a25.14,25.14,0,0,0,3.22,8.57l-24.93,24.28a108.92,108.92,0,0,0-132.85.38l-22.89-22.29A23,23,0,0,0,121.62,380.8Zm146.6,86.44c-37.54-7.42-80.62-7.86-122.44-1.24,11.39-21.71,34.49-36.06,60.9-36.06C233.59,429.94,257.07,444.84,268.22,467.24ZM101.8,403.3l-1.91,1.08c-5.89,3.35-11.13,3.47-14.77.34a11,11,0,0,1-3-11.92c1.63-4.21,5.88-6.44,12-6.29l3.38.09-.5-3.34c-.58-3.86,0-7,1.76-9.16a8.67,8.67,0,0,1,6.39-3h0a11.51,11.51,0,0,1,3.22.29,11.92,11.92,0,0,1,1.69.55l.45.18.62.31c.19.1.37.21.54.32l.48.29a10.15,10.15,0,0,1,.89.7,3.83,3.83,0,0,1,.29.28c.21.2.41.4.6.62l.24.29a7.17,7.17,0,0,1,1.25,2.29,3.36,3.36,0,0,1,.14.45,7.62,7.62,0,0,1,.23,1c0,.18.06.35.08.53.38,3.27-.86,7.2-3.68,11.43l-1.31,2,25.74,25.07A110.9,110.9,0,0,0,126,428.11Zm-.45,91.39c45.48-22,145.52-26.53,209.81-1.05a188.41,188.41,0,0,1-29.34,7.64,25.37,25.37,0,0,0-.38-4.57c-.81-4.28-3.36-7.49-8.63-9.84-4.45-2.07-10.93-3.49-20.11-4.39h-1.6c-10.85-.93-25.22-1.22-44.08-1-13.49.12-24.59.44-33.72,1h-2.94c-25.28,1.91-34.41,6.29-37.34,15.38a16,16,0,0,0-.48,2.13C122.22,498.49,111.8,496.72,101.35,494.69Zm215.58,3.23,3.7-1.23,1.17-.49c-.14,29.27-1.74,58.69-6.38,89.37a8.68,8.68,0,0,1-1,2.8l-20.43-21a108.62,108.62,0,0,0,23-66.91C317,499.64,317,498.78,316.93,497.92Zm3.76-6.42q-2.1-.94-4.26-1.84a108.68,108.68,0,0,0-23.63-57.6L316.27,408c.84.4,1.67.74,2.49,1a15.9,15.9,0,0,1,.88,4.82l0,.89c1.09,26.18,2.14,51.7,2.13,77.29ZM111.27,608.11c.48.73.92,1.44,1.31,2.15l.09.16c.37.67.69,1.33,1,2,0,.08.07.16.11.23.26.63.48,1.25.67,1.86,0,.08,0,.17.08.26a14.83,14.83,0,0,1,.39,1.74c0,.09,0,.17,0,.26a11.87,11.87,0,0,1,.12,1.65c0,.08,0,.15,0,.23a9,9,0,0,1-.16,1.57s0,.11,0,.17a9.49,9.49,0,0,1-.45,1.49l0,.1a8.2,8.2,0,0,1-.78,1.42,8.58,8.58,0,0,1-.53.7,9.91,9.91,0,0,1-3.37,2.48l-3.87.67,0,.37a10.43,10.43,0,0,1-5.16-.81c-3.8-1.73-5.44-5.75-4.61-11.31l.5-3.34-3.38.09c-6.14.14-10.4-2.08-12-6.28a11,11,0,0,1,3-12c3.65-3.14,8.9-3,14.78.33l1.91,1.09,23.62-24.25a111.58,111.58,0,0,0,10.4,10.68L110,606.15Zm18.61,32.13-1.14,1.46-1.29-5.38-5,1.17v-6.08l-5.32-.39,5.9-1c1.66,1.74,4.76,5,6.58,6.85l.3,3.52Zm-10.69-15.33a15.62,15.62,0,0,0,.66-1.53h3.2l-.88,1Zm13,6.42c-1.48-1.53-3.23-3.36-4.49-4.68.93-1.1,1.88-2.18,2.84-3.27,1.48-1.69,3-3.38,4.52-5l2.88,6.8C136.08,627.12,134.16,629.2,132.22,631.33Zm10-10.62-2.93-6.89q3.61-3.77,7.43-7.48c.53-.53,1.05-1.05,1.59-1.57l2.14,7.91C147.79,615.23,145.05,617.89,142.26,620.71Zm-3.59-14.38H117.9l21.34-20.79a107.8,107.8,0,0,0,12.27,8.53Q144.81,600.15,138.67,606.33Zm10.92-66.61A74.55,74.55,0,0,1,143,526.89l-.1-.25c-.37-.94-.71-1.87-1-2.79l-.21-.6c-.29-.84-.55-1.66-.8-2.48-.08-.29-.17-.58-.25-.86-.21-.74-.41-1.47-.59-2.18-.1-.38-.19-.75-.27-1.12q-.22-.93-.42-1.83c-.1-.51-.19-1-.28-1.49s-.17-.9-.24-1.33c-.14-.91-.26-1.81-.35-2.66,0-.14,0-.27,0-.41-.06-.61-.11-1.21-.15-1.78l0-.68c0-.45,0-.88,0-1.3s0-.55,0-.82,0-.37,0-.55,0-.24,0-.36c0-.31,0-.62.06-.91l0-.23,0-.24c0-.41.11-.8.17-1.16a9.46,9.46,0,0,1,.27-1.08h0c2.93-9.14,19.52-12.22,68.27-12.67q5,0,9.66-.05c41.94,0,57.67,2.95,59.14,10.71s-2,30.89-16.89,48.83q-1.23,1.49-2.52,2.88c-.29.31-.59.59-.88.9-.58.6-1.17,1.21-1.77,1.79l-1.09,1c-.55.5-1.1,1-1.67,1.49-.4.34-.81.66-1.22,1s-1.1.9-1.66,1.32-.87.63-1.31.94-1.12.8-1.69,1.18l-1.38.88-1.74,1-1.44.8c-.6.32-1.19.63-1.8.93s-1,.49-1.5.72-1.23.56-1.85.83l-1.64.67-1.46.55c-.61.22-1.22.43-1.84.63l-1.49.48c-.63.19-1.27.36-1.9.54s-1,.27-1.53.39-1.32.31-2,.45l-1.54.32c-.69.13-1.39.25-2.09.36-.51.08-1,.17-1.53.24-.74.1-1.49.18-2.24.27l-1.47.16c-.84.07-1.7.12-2.55.17-.42,0-.83.07-1.26.09-1.28,0-2.58.08-3.9.08-29.55,0-46.3-14.47-55.15-26.62C151.08,542,150.31,540.85,149.59,539.72Zm146.63,66.61h-26.3c-3.85-2.94-7.55-6.13-11.08-9.37a109.74,109.74,0,0,0,16.62-10.83ZM235.05,581.9c.51.46,1,1,1.55,1.45-1.94.8-4.67,2-8.53,3.66l-2.74-2.89A96.39,96.39,0,0,0,235.05,581.9Zm-8.38-8.82c1.76-.43,3.5-.91,5.19-1.46l3,5.61q-3.35,1-6.76,1.74Zm-8,12c-.06.06-.1.11-.07.14,2.21,2.38,4.37,4.67,6.51,6.89a62.27,62.27,0,0,1-7,1.62l-1.87-8.46C217,585.21,217.86,585.16,218.66,585.08Zm-4.28-4.17.14-5.86c2.63-.22,5.2-.57,7.72-1l1.4,5.8C220.59,580.33,217.5,580.7,214.38,580.91Zm-6.68,4.77c.94,0,1.87-.06,2.8-.08l1.95,8.84a64.35,64.35,0,0,1-12.94-.28l2.12-8.68C203.66,585.6,205.69,585.68,207.7,585.68ZM203.07,581l.27-5.72c1.21.05,2.44.07,3.7.07,1,0,2,0,2.94,0l-.15,5.78C207.59,581.15,205.34,581.13,203.07,581ZM178.23,577l3.7-5.33c1.47.48,3,.91,4.57,1.3l-1.77,5.65C182.57,578.09,180.4,577.56,178.23,577Zm1.83,11c-3.27,2.45-6.59,5-10,7.72l-2.16-8.34c2.57-2.13,5.19-4.26,7.89-6.39.61.18,1.22.33,1.83.5Zm5.78-4.28-1,.76-.43-1.16Zm8.1,1.13,0,0c.64.08,1.29.14,1.93.21l-2,8.23a63.67,63.67,0,0,1-8.27-2.35Q189.79,587.8,193.94,584.81Zm-4.75-5.34,1.74-5.56q3.76.71,7.88,1.08l-.27,5.72C195.44,580.43,192.32,580,189.19,579.47Zm-31.73,26.86c-.76.68-1.51,1.32-2.27,2l-2.15-8q1.82-1.68,3.68-3.35l2.34-2.09c1.29-1.13,2.57-2.27,3.89-3.4l2.13,8.23C162.58,601.85,160,604.06,157.46,606.33Zm8.58,0c1.34-1.13,2.67-2.25,4-3.33l.07,0q1.63,1.74,3.28,3.31Zm40.41,10.2c-10.41.14-21.12-5.63-32-17.13q2.93-2.31,5.82-4.53a69.87,69.87,0,0,0,27,5.45,68.79,68.79,0,0,0,22.22-3.67c1.72,1.72,3.41,3.37,5.08,5C225.32,611.4,215.88,616.41,206.45,616.53Zm31.5-10.2c.27-.27.54-.53.8-.81l.9.81Zm-5.64-15c4.8-2.09,7.37-3.15,8.73-3.69l1.89,1.86c2,2,4.06,4,6.24,6.12l-8.93,3.46Q236.37,595.45,232.31,591.35Zm18.92,17.54-.27-.23c-.9-.76-1.81-1.53-2.72-2.33-1.11-1-2.22-1.93-3.35-3l8.85-3.42c2.31,2.14,4.71,4.28,7.2,6.37l.19.17L254,611.15C253.07,610.42,252.16,609.66,251.23,608.89Zm7.46,6,7.1-4.6c2.9,2.24,5.9,4.37,9,6.31l-6.94,4.71Q263.44,618.42,258.69,614.84Zm24.63,14.66a88.58,88.58,0,0,1-10.14-5l7.08-4.79c1.32.7,2.66,1.36,4,2h0c1.35.62,2.72,1.18,4.11,1.7h0l.6.23Zm16.7,4.44a55.92,55.92,0,0,1-10.87-2.31l6-6.18,1.3.28h0c1.13.24,2.27.44,3.41.6l.29,0c1.13.15,2.26.27,3.4.34Zm6.16.27,3.66-7.57a45.05,45.05,0,0,0,8-1.42l.69,7.08A48.55,48.55,0,0,1,306.18,634.21Zm17.88-3.79-.2-2.15-.39-4,1.88.08,10.23.42A92.38,92.38,0,0,1,324.06,630.42Zm11.28-24a9.63,9.63,0,0,1-.41,1.39c-1.62,4.2-5.88,6.41-12,6.28l-3.38-.09.5,3.34c.06.41.09.78.12,1.17l-.34.12a39.58,39.58,0,0,1-18.74,2.16,2.66,2.66,0,0,1,0-.28v-.07a12.14,12.14,0,0,1,.36-3.09l0-.15c.13-.52.29-1.05.48-1.6l.07-.18c.19-.51.4-1,.64-1.54l.08-.18c.25-.54.54-1.09.85-1.64l.21-.36c.32-.56.67-1.13,1.05-1.7l1.31-2-1.78-1.74-24.5-23.86a110.27,110.27,0,0,0,10.54-10.64l20.09,20.61a5.68,5.68,0,0,1-1.75.69l.49,5.63h25A11.16,11.16,0,0,1,335.34,606.45Zm-.06-209.76H309l4.31,4.74c.23.26.47.51.71.76l-24.87,25.52a108.67,108.67,0,0,0-10.77-10.47l27.77-27-1.31-2a22.81,22.81,0,0,1-3.4-7.44,12.34,12.34,0,0,1-.32-3.61v-.08a8.73,8.73,0,0,1,.25-1.46,1.55,1.55,0,0,1,0-.21,7.83,7.83,0,0,1,.57-1.51,10.24,10.24,0,0,1,8.7-5.2,9.1,9.1,0,0,1,7.35,2.73,6.86,6.86,0,0,1,.67.84c.12.18.22.38.33.57s.15.25.21.38a8.19,8.19,0,0,1,.36.86l.07.18c.12.35.22.71.31,1.09v0a15.23,15.23,0,0,1,.08,5.38.28.28,0,0,1,0,.09l-.5,3.34,3.38-.08c6.14-.15,10.41,2.07,12,6.27A10.56,10.56,0,0,1,335.28,396.69Zm63.27,6.22c7.23,9.14,7.23,47.35,7.23,91.25,0,6.12,0,12.21.08,18.18.24,34.39.46,67.09-8.14,77.73l-1.43,0C389.67,510.73,394.74,418.36,398.55,402.91ZM362.34,605.29h-5.87c1.82-.79,3.87-1.62,6.07-2.43Zm-19.18.58-.61.46h-1.44a16.62,16.62,0,0,0-.72-7.57h13.42l-.62-3.36c-2.08-11.07-2.45-22.9-1.11-36.47a257.45,257.45,0,0,0,12.37,37.21C353.41,599.83,345.43,604.14,343.16,605.87Zm26.62-.58H368l.36-4.45c1.86-.6,3.8-1.16,5.8-1.69l.38,4.51C373,604.15,371.37,604.68,369.78,605.29ZM387.09,601a67.16,67.16,0,0,0-6.95,1.16l-.36-4.37c.78-.17,1.55-.34,2.34-.49,1.68-.31,3.43-.6,5.25-.84Zm10.79-.36c-1.09,0-2.17-.09-3.26-.09-.61,0-1.22,0-1.82,0l.28-4.73c1.72-.13,3.48-.21,5.26-.23Zm11.1,1.53q-2.7-.62-5.46-1l.51-5.41a72.11,72.11,0,0,1,8.51,1Zm5.75,1.58,3.72-5.66a61.15,61.15,0,0,1,6.69,2.25l-6.09,5C417.62,604.8,416.18,604.27,414.73,603.79Zm10,4.24,6.08-5c1.67.89,3.33,1.88,5,3l-6.72,4.49Q427,609.18,424.76,608Zm9.37,5.91,6.49-4.32c.27.22.54.43.8.66a83.86,83.86,0,0,0,7.1,5.47L443.07,620C440.2,618.21,437.22,616.2,434.13,613.94Zm29.25,15.9a85.36,85.36,0,0,1-15.07-6.74l5.34-4.16A55.47,55.47,0,0,0,468,624.68Zm16.21,2.79a49.82,49.82,0,0,1-10.1-1.13l5.08-5.71a41.68,41.68,0,0,0,5,.16ZM492,631a46.2,46.2,0,0,1-6.72,1.34v-6.94a28.71,28.71,0,0,0,5.11-1.38l2.05,0Zm5.81-2,.32-5.16,10.21-.24A79,79,0,0,1,497.79,629Zm28.78-23.43a57.21,57.21,0,0,1,11.07-6.2l.38,6.59Zm22.63-2.31a14.66,14.66,0,0,0-5.51,2.58l-.4-7.06H544l.22-1.6a43.41,43.41,0,0,1,6-1.11Zm5.79-.4,1-7h.39a38.25,38.25,0,0,1,11.46,2.43l-5.59,6.38A24.77,24.77,0,0,0,555,602.84Zm20,10a56.88,56.88,0,0,0-7.51-5.52l5.76-6.58a54.33,54.33,0,0,1,9.51,6.58Zm4.4,3.83,7.59-5.4q1.89,1.91,3.73,4a30.7,30.7,0,0,0,3.67,3.56l-5.89,4.76A108.43,108.43,0,0,1,579.39,616.7Zm26.46,15.41a54.5,54.5,0,0,1-12.27-5.28l5.7-4.6a34,34,0,0,0,10.47,3.61Zm5.92,1.22,4.29-6.9a41.3,41.3,0,0,0,7.51-.63l.17,7.21A38.86,38.86,0,0,1,611.77,633.33Zm17.61-1.7-.17-7.24c.68-.22,1.36-.46,2-.71h5.22l.39,5.08A64.82,64.82,0,0,1,629.38,631.63Zm12.93-5.57-.18-2.38h4.53Q644.47,624.92,642.31,626.06Zm247-63.26-6.09-4.3c.57-1.77,1.08-3.52,1.55-5.26a14.56,14.56,0,0,0,6.13,3.41C890.5,558.65,890,560.69,889.35,562.8Zm-4.69-63,7.25,5.74a47.23,47.23,0,0,0-2,6.31l-7.6-4.56A56.35,56.35,0,0,1,884.66,499.8ZM890,535.24a46,46,0,0,0,1.79,5.35l-8.86-.45a38.13,38.13,0,0,1-1.82-7Zm-8.72,28.81,6.2,4.38c-1.52,4.24-3.33,8.58-5.31,12.84l-5.57-6.49C878.35,571.21,879.91,567.62,881.28,564.05Zm13.92-13.2c-1.42,1-4.89.75-8.64-4-.22-.27-.41-.57-.62-.86l8.7.44.76,1.31C896.21,549,896.13,550.2,895.2,550.85Zm18.74-18.24-1,4-6.44,3.71-6.66-.69,1.76-.58v0C905.4,537.36,913.94,532.61,913.94,532.61Zm-10.32-7.47c1.37,1.58,2.86,3.22,4.56,5-.25.12-12.47,4.85-12.47,4.85a18.58,18.58,0,0,1-2.55-9Zm-10.71-3.66,1.17-8.93c1.76,2.58,3.4,4.91,5.16,7.21Zm.48-33.51h0a.84.84,0,0,1,.42-.09,4,4,0,0,1,2.61,1.75c1.51,1.94,2.29,5,.43,7.2a22.46,22.46,0,0,0-2.08,2.92L887.51,494C889.31,491.1,891.31,489,893.39,488Zm-12.27,25.24,7.68,4.61a47.22,47.22,0,0,0,0,11.21l-8.38-1.93A69.77,69.77,0,0,1,881.12,513.21Zm-5.28-10.88h1.92c-.46,1.51-.88,3.08-1.25,4.72-.25,1.08-.47,2.22-.67,3.38Zm-14-.66v10.21a6.83,6.83,0,0,0,7.07,6.89,7.07,7.07,0,0,0,4.69-1.7,6.34,6.34,0,0,0,1.59-2.15c-1.27,10.94-.41,23.78,5.16,32.86A104.86,104.86,0,0,1,874,567.1c-22.92-21.48-30-51.47-30.83-65.43Zm-94.75-52.41c-.09-6.23,1.64-10.58,5-12.57a8.3,8.3,0,0,1,4.23-1.13,8.64,8.64,0,0,1,4.17,1.05,3.42,3.42,0,0,1,2,2.63c0,1.78.14,4,.3,6.54.5,7.94,1.34,21.22-2.95,24.77l-6.06,5h42.8a105.13,105.13,0,0,0-2,18.94,106.44,106.44,0,0,0,1.2,17.89H776.19l2.29,4.19c2.81,5.15,4.35,16.07,4.35,30.76,0,5.66-4.07,9-8,9a6.43,6.43,0,0,1-5.1-2.48c-1.74-2.12-2.66-5.43-2.66-9.58Zm-33,109c1.27,12.13,5.15,21.88,11.59,29.07a36.31,36.31,0,0,0,27.48,12c21.48,0,44.47-17.11,44.47-42.59V521.66c6.56,26.33,23.34,48.39,47.42,62.49a143.79,143.79,0,0,1-16.74,22.18H731c-4.29-2.82-8.3-5.42-11.87-7.57h15Zm94.63,65.11c-11.5,7.72-27.37,14.63-44.94,11.41-7.28-1.34-16.53-5.86-26-11.41ZM676.36,602.6v2.62c-4.35-.08-7.9-.11-10.74-.1A62.1,62.1,0,0,1,676.35,600C676.36,600.63,676.37,601.48,676.36,602.6Zm9.64,2.52-.62.33-3.35-.09v-2.73c0-1.68,0-3,0-3.94.39,0,.79-.1,1.18-.11l4.79.06Zm-1.38-57.47V501.83c14.53,1.06,24.53,10.08,27.57,15.9l5.35-1.31V472.88l-5.35-1.3c-6.71,13-14.73,16-27.57,16.39V444c0-14.57,11.16-20.53,20.72-21.2,10.52-.73,22,4.5,23.59,15.91l4.72-.33c0,.51,0,1,0,1.55V549c0,1.1,0,2.17,0,3.23L729,558.66c-7.24,9.85-19.85,11.19-29.13,8.14C690.31,563.68,684.62,556.52,684.62,547.65Zm14.21,55.73a21.73,21.73,0,0,0-4.28-.45,18.22,18.22,0,0,0-2,.12l1.31-4.33,8.7.12Zm6.27,2,4.44-5.39a89.87,89.87,0,0,1,7.94,4.47l-5.9,4.12A59.22,59.22,0,0,0,705.1,605.33Zm18.77,11.49c-1.22-.93-2.41-1.83-3.53-2.63s-2.37-1.66-3.51-2.41l5.85-4.09c2.12,1.37,4.32,2.82,6.58,4.3Zm5.78,4.54-1.24-1,5.74-5.15c2.72,1.79,5.49,3.6,8.27,5.38l-7.38,5C733.17,624.15,731.37,622.72,729.65,621.36Zm10.15,7.86,7.85-5.3c2.88,1.79,5.76,3.53,8.62,5.17l-7.17,6.6C745.85,633.6,742.75,631.41,739.8,629.22Zm13.92,9.29,7.33-6.74q4.47,2.4,8.74,4.3l-5.54,7.79A99,99,0,0,1,753.72,638.51Zm25.84,10.08a68.93,68.93,0,0,1-9.85-2.62l5.49-7.73a47.17,47.17,0,0,0,7.56,2.12c.76.14,1.51.24,2.27.35ZM799,649a59.92,59.92,0,0,1-7.42.6c-1.91,0-3.79,0-5.65-.2l5.7-8.2a57,57,0,0,0,9.81-.65ZM820,643.14a95.38,95.38,0,0,1-14.84,4.75l2.48-8.59a71.77,71.77,0,0,0,13-4.74Zm5.87-2.59.63-9.11a97.06,97.06,0,0,0,10.91-7.35l.24-.19,2.87,8.41A124.15,124.15,0,0,1,825.89,640.55ZM845.39,629l-3-8.92a127.6,127.6,0,0,0,9.47-9.18l5,8.86A127.65,127.65,0,0,1,845.39,629Zm16.09-13.8-5.22-9.31c2.73-3.22,5.34-6.58,7.8-10l5.44,8.52A84.54,84.54,0,0,1,861.48,615.17Zm6-24.45c2.24-3.44,4.34-7,6.27-10.5l5.67,6.62c-2.15,4.28-4.42,8.39-6.65,12.16ZM875,606.33c2.61-4.11,5.32-8.78,7.93-13.73,2.6,1,5.25,1.87,8,2.68l-6.18,11.05Z" transform="translate(-74.8 -344.69)"/></svg>